<mxfile host="65bd71144e">
    <diagram id="JR51kfBBkCoqazEDlZEo" name="Page-1">
        <mxGraphModel dx="1054" dy="764" grid="1" gridSize="10" guides="1" tooltips="1" connect="1" arrows="1" fold="1" page="1" pageScale="1" pageWidth="850" pageHeight="1100" math="0" shadow="0">
            <root>
                <mxCell id="0"/>
                <mxCell id="1" parent="0"/>
                <mxCell id="2" value="UNCRYPETED&lt;br&gt;DATA" style="shape=card;whiteSpace=wrap;html=1;fillStyle=hatch;strokeColor=#001DBC;fillColor=#0050ef;fontColor=#ffffff;" parent="1" vertex="1">
                    <mxGeometry x="80" y="450" width="100" height="110" as="geometry"/>
                </mxCell>
                <mxCell id="3" value="PRIVATE KEY" style="shape=display;whiteSpace=wrap;html=1;fillStyle=hatch;strokeColor=#FF3333;fillColor=#FF0000;fontColor=#ffffff;" parent="1" vertex="1">
                    <mxGeometry x="510" y="480" width="120" height="50" as="geometry"/>
                </mxCell>
                <mxCell id="4" value="PUBLIC KEY" style="shape=delay;whiteSpace=wrap;html=1;fillStyle=hatch;strokeColor=#005700;fillColor=#008a00;fontColor=#ffffff;" parent="1" vertex="1">
                    <mxGeometry x="220" y="480" width="120" height="50" as="geometry"/>
                </mxCell>
                <mxCell id="8" value="CRYPETED&lt;br&gt;DATA" style="shape=note;whiteSpace=wrap;html=1;backgroundOutline=1;darkOpacity=0.05;fillStyle=hatch;strokeColor=#FF3399;fillColor=#FF0080;gradientColor=none;" parent="1" vertex="1">
                    <mxGeometry x="380" y="450" width="90" height="110" as="geometry"/>
                </mxCell>
                <mxCell id="15" value="UNCRYPETED&lt;br&gt;DATA" style="shape=card;whiteSpace=wrap;html=1;fillStyle=hatch;strokeColor=#001DBC;fillColor=#0050ef;fontColor=#ffffff;" parent="1" vertex="1">
                    <mxGeometry x="700" y="450" width="100" height="110" as="geometry"/>
                </mxCell>
                <mxCell id="17" value="" style="endArrow=classic;html=1;" parent="1" source="2" target="4" edge="1">
                    <mxGeometry width="50" height="50" relative="1" as="geometry">
                        <mxPoint x="530" y="490" as="sourcePoint"/>
                        <mxPoint x="580" y="440" as="targetPoint"/>
                    </mxGeometry>
                </mxCell>
                <mxCell id="18" value="" style="endArrow=classic;html=1;exitX=1;exitY=0.5;exitDx=0;exitDy=0;" parent="1" source="4" target="8" edge="1">
                    <mxGeometry width="50" height="50" relative="1" as="geometry">
                        <mxPoint x="530" y="490" as="sourcePoint"/>
                        <mxPoint x="580" y="440" as="targetPoint"/>
                    </mxGeometry>
                </mxCell>
                <mxCell id="19" value="" style="endArrow=classic;html=1;entryX=0;entryY=0.5;entryDx=0;entryDy=0;entryPerimeter=0;" parent="1" source="8" target="3" edge="1">
                    <mxGeometry width="50" height="50" relative="1" as="geometry">
                        <mxPoint x="530" y="490" as="sourcePoint"/>
                        <mxPoint x="505" y="505" as="targetPoint"/>
                    </mxGeometry>
                </mxCell>
                <mxCell id="22" value="" style="endArrow=classic;html=1;exitX=1;exitY=0.5;exitDx=0;exitDy=0;exitPerimeter=0;" parent="1" source="3" target="15" edge="1">
                    <mxGeometry width="50" height="50" relative="1" as="geometry">
                        <mxPoint x="530" y="490" as="sourcePoint"/>
                        <mxPoint x="580" y="440" as="targetPoint"/>
                    </mxGeometry>
                </mxCell>
            </root>
        </mxGraphModel>
    </diagram>
</mxfile>